<svg xmlns="http://www.w3.org/2000/svg" viewBox="0 0 60 60.02"><defs><style>.cls-1{fill:#ffd600;}</style></defs><g id="Livello_2" data-name="Livello 2"><g id="Livello_1-2" data-name="Livello 1"><path class="cls-1" d="M13.2,59.62a.91.91,0,0,0,.8.4H27a.94.94,0,0,0,1-1v-8.8a12,12,0,0,0-8.3-11.4l-5-5.3a4,4,0,0,0-5.8-.2,4.44,4.44,0,0,0-.8,1.1L8,22a4,4,0,0,0-8,0v16.1a7.21,7.21,0,0,0,1.2,4ZM2,22a2,2,0,0,1,4,0V36a.91.91,0,0,0,.3.7l2.4,2.4h0l6,6a1,1,0,1,0,1.4-1.4L10,37.62a2.09,2.09,0,0,1,.1-3l.1-.1a2.16,2.16,0,0,1,2.9.2l5.1,5.5c.1.1.3.2.4.3a10.3,10.3,0,0,1,7.2,9.6V58H14.5L2.9,41a5,5,0,0,1-.9-2.9V22Z"/><path class="cls-1" d="M56,18a4,4,0,0,0-4,4v12.3a4.14,4.14,0,0,0-5.6-1.7,4.44,4.44,0,0,0-1.1.8l-5,5.3A12.26,12.26,0,0,0,32,50.22V59a.94.94,0,0,0,1,1H46a1.23,1.23,0,0,0,.8-.4l12-17.5a7,7,0,0,0,1.2-4V22A4,4,0,0,0,56,18Zm2,20.1a4.68,4.68,0,0,1-.9,2.8L45.5,58H34v-7.8a10.05,10.05,0,0,1,7.2-9.6c.2-.1.3-.1.4-.3l5.1-5.5a2.16,2.16,0,0,1,2.9-.2,2.09,2.09,0,0,1,.3,3,.1.1,0,0,1-.1.1l-6.1,6.1a1,1,0,0,0,1.4,1.4l6-6h0l2.4-2.4a.91.91,0,0,0,.3-.7v-14a2,2,0,0,1,4,0v16Z"/><path class="cls-1" d="M18,24H16a.94.94,0,0,0-1,1A13,13,0,0,0,28,38h1v4h2V38h1A13,13,0,0,0,45,25a.94.94,0,0,0-1-1H42a13,13,0,0,0-11,6.1V24h1A13,13,0,0,0,45,11a.94.94,0,0,0-1-1H42a13,13,0,0,0-11,6.1V10h1a9,9,0,0,0,9-9,.94.94,0,0,0-1-1H38a8.93,8.93,0,0,0-8,4.9A8.93,8.93,0,0,0,22,0H20a.94.94,0,0,0-1,1,9,9,0,0,0,9,9h1v6.1A13,13,0,0,0,18,10H16a.94.94,0,0,0-1,1A13,13,0,0,0,28,24h1v6.1A13,13,0,0,0,18,24ZM28,36A11.07,11.07,0,0,1,17,26h1A11.07,11.07,0,0,1,29,36ZM42,26h1A11,11,0,0,1,32,36H31A11.07,11.07,0,0,1,42,26Zm0-14h1A11,11,0,0,1,32,22H31A11.07,11.07,0,0,1,42,12ZM38,2h.9A7.07,7.07,0,0,1,32,8h-.9A7,7,0,0,1,38,2ZM28,8a7,7,0,0,1-6.9-6H22a7,7,0,0,1,6.9,6Zm0,14A11.07,11.07,0,0,1,17,12h1A11.07,11.07,0,0,1,29,22Z"/><path class="cls-1" d="M49,9.22a1,1,0,0,0,1.2.8,1.09,1.09,0,0,0,.8-.8A3.93,3.93,0,0,1,54.2,6a1,1,0,0,0,.8-1.2,1.09,1.09,0,0,0-.8-.8A3.93,3.93,0,0,1,51,.82,1,1,0,0,0,49.8,0a1.09,1.09,0,0,0-.8.8A3.93,3.93,0,0,1,45.8,4a1,1,0,0,0-.8,1.2,1.09,1.09,0,0,0,.8.8A3.82,3.82,0,0,1,49,9.22Zm1-5.6A6.2,6.2,0,0,0,51.4,5,6.2,6.2,0,0,0,50,6.42,6.2,6.2,0,0,0,48.6,5,9.27,9.27,0,0,0,50,3.62Z"/></g></g></svg>