<svg xmlns="http://www.w3.org/2000/svg" viewBox="0 0 59 60"><defs><style>.cls-1{fill:#ffd600;}</style></defs><g id="Livello_2" data-name="Livello 2"><g id="Livello_1-2" data-name="Livello 1"><path class="cls-1" d="M41,5.2V7a5,5,0,0,0,5,5h.5a4.81,4.81,0,0,0,3-1.5A6.05,6.05,0,0,0,54.9,14a1,1,0,0,0,1-1V7a6,6,0,0,0-6-6h-1c-.2-.1-.4-.3-.6-.4s-.1-.1-.2-.1-.3-.2-.5-.2-.1-.1-.2-.1-.3-.1-.5-.1a.37.37,0,0,1-.3-.1h-.9a1.27,1.27,0,0,0-.6.1A4.94,4.94,0,0,0,41,5ZM54,7v4.8a4.05,4.05,0,0,1-3-3.9V5a4.06,4.06,0,0,0-.4-1.9A4.06,4.06,0,0,1,54,7ZM48.6,5.1c.1-.1.4-.1.4.1V6.8A3.22,3.22,0,0,1,46.3,10,3.07,3.07,0,0,1,43,7.5,18.6,18.6,0,0,0,48.6,5.1ZM43,5.2a3.49,3.49,0,0,1,1-2.4A4.35,4.35,0,0,1,45.5,2H46a1.7,1.7,0,0,1,.7.1h.1c.2.1.4.1.6.2h.1a2.34,2.34,0,0,1,.7.7c-.3.1-.5.2-.8.3a15.12,15.12,0,0,1-4.5,2V5.2Z"/><path class="cls-1" d="M58,28H56.4l.5-1.7V19a5,5,0,0,0-5-5H42a4.51,4.51,0,0,0-2.5.7l1,1.7a1.69,1.69,0,0,1,1-.3l-1,2.3A7,7,0,0,0,34,14H24a7,7,0,0,0-7,7V38H11V58H5.9l1-1.4c0-.2.1-.4.1-.6V36h8V34H7V21H5V34H2V21a5,5,0,0,1,5-5h4V32h2V16h4V14H7a7,7,0,0,0-7,7V39a.94.94,0,0,0,1,1H5V55.7L3.2,58.4a1,1,0,0,0,.3,1.4A.76.76,0,0,0,4,60H20a.9.9,0,0,0,.5-.1.9.9,0,0,0,.5.1H37a.94.94,0,0,0,1-1,1.42,1.42,0,0,0-.2-.6L36,55.7V40h4V54.8l-1.9,3.8a1.05,1.05,0,0,0,.4,1.3.9.9,0,0,0,.5.1h4a.91.91,0,0,0,.8-.4L45,58v2h2V58l1.2,1.6a.91.91,0,0,0,.8.4h4a.94.94,0,0,0,1-1,.9.9,0,0,0-.1-.5L52,54.8V40h6a.94.94,0,0,0,1-1V29A.94.94,0,0,0,58,28ZM5,38H2V36H5Zm14-2h3v2H19ZM13,58V50h4v6a1.42,1.42,0,0,0,.2.6l1,1.4Zm9-2.3L20.5,58,19,55.7V50h3ZM28,58H22.9l1-1.4a1.42,1.42,0,0,0,.2-.6V50h4v8Zm0-10H13V43.4L20,46l8-2.7Zm0-6.7L20,44l-7-2.6V40H28ZM30,58V38H24V36H34V56a1.42,1.42,0,0,0,.2.6l1,1.4Zm9-20H36V36h3Zm0-4H36V21H34V34H24V21H22V34H19V21a5,5,0,0,1,5-5h4V32h2V16h4a5,5,0,0,1,5,5Zm2,1V31.6l2-7.4a1,1,0,0,0-.3-1,3.23,3.23,0,0,1-.7-3.5l1.6-3.8H51v9.9L50.3,28H48.4l-.7-.7A.91.91,0,0,0,47,27H44a.94.94,0,0,0-1,1V38H41V35Zm4,19.7L42.5,58H40.6l1.3-2.6c.1-.1.1-.2.1-.4V40h3V54.7ZM46,38H45V29h1.6l.7.7a.91.91,0,0,0,.7.3h1.7l-2.5,8Zm3.5,20L47,54.7V40h3V55c0,.2,0,.3.1.4L51.4,58Zm1.8-20H49.4L53,26.3V16.2A3,3,0,0,1,55,19v6.9ZM57,38H53.4l2.5-8H57Z"/><path class="cls-1" d="M7,5V7A5,5,0,0,0,17,7V5A5,5,0,0,0,7,5Zm8,0V7A3,3,0,0,1,9,7V5a3,3,0,0,1,6,0Z"/><path class="cls-1" d="M24,5V7A5,5,0,0,0,34,7V5A5,5,0,0,0,24,5Zm8,0V7a3,3,0,0,1-6,0V5a3,3,0,0,1,6,0Z"/></g></g></svg>