<?xml version="1.0" encoding="UTF-8" standalone="no"?>
<!DOCTYPE svg PUBLIC "-//W3C//DTD SVG 1.1//EN" "http://www.w3.org/Graphics/SVG/1.1/DTD/svg11.dtd">
<svg width="100%" height="100%" viewBox="0 0 512 512" version="1.1" xmlns="http://www.w3.org/2000/svg" xmlns:xlink="http://www.w3.org/1999/xlink" xml:space="preserve" xmlns:serif="http://www.serif.com/" style="fill-rule:evenodd;clip-rule:evenodd;stroke-linejoin:round;stroke-miterlimit:2;">
    <g>
        <path d="M511.797,411.884L511.797,366.832L463.741,366.832L463.741,336.797L447.722,336.797L447.722,311.768L463.741,311.768L463.741,266.715L343.959,266.715L343.959,281.733L448.724,281.733L448.724,296.75L138.005,296.75L138.005,311.768L432.704,311.768L432.704,336.797L105.825,336.797C98.924,336.797 93.31,331.183 93.31,324.282C93.31,317.381 98.924,311.768 105.825,311.768L122.988,311.768L122.988,296.75L105.825,296.75C90.644,296.75 78.293,309.101 78.293,324.282C78.293,339.464 90.644,351.814 105.825,351.814L448.723,351.814L448.723,366.832L189.922,366.832L189.922,381.849L496.778,381.849L496.778,396.866L72.786,396.866C49.324,396.866 30.237,415.954 30.237,439.416C30.237,462.878 49.324,481.965 72.786,481.965L426.482,481.965L426.482,466.948L72.787,466.948C57.606,466.948 45.256,454.597 45.256,439.416C45.256,424.234 57.606,411.884 72.787,411.884L480.761,411.884L480.761,436.913L147.875,436.913L147.875,451.93L480.761,451.93L480.761,466.948L441.5,466.948L441.5,481.965L496.779,481.965L496.779,496.983L72.787,496.983C41.045,496.983 15.221,471.159 15.221,439.416C15.221,407.673 41.045,381.849 72.787,381.849L174.906,381.849L174.906,366.832L105.826,366.832C82.364,366.832 63.276,347.744 63.276,324.282C63.276,300.82 82.364,281.733 105.826,281.733L328.942,281.733L328.942,266.715L105.826,266.715C74.083,266.715 48.259,292.539 48.259,324.282C48.259,341.244 55.637,356.512 67.347,367.057C29.858,369.851 0.203,401.224 0.203,439.416C0.203,479.439 32.764,512 72.787,512L511.797,512L511.797,466.948L495.778,466.948L495.778,411.884L511.797,411.884Z" style="fill:rgb(39,84,160);fill-rule:nonzero;"/>
        <rect x="117.84" y="436.913" width="15.017" height="15.017" style="fill:rgb(39,84,160);fill-rule:nonzero;"/>
        <path d="M138.364,223.178L141.707,225.408C143.011,226.277 174.57,246.692 256,246.692C337.43,246.692 368.989,226.277 370.293,225.408L373.636,223.178L373.636,96.757L418.689,81.74L418.689,152.631C407.147,155.909 398.666,166.536 398.666,179.114L398.666,216.657L453.729,216.657L453.729,179.114C453.729,166.536 445.248,155.909 433.706,152.631L433.706,76.734L459.954,67.985L381.096,41.698L376.347,55.945L412.465,67.984L256,120.139L99.535,67.985L256,15.83L362.1,51.197L366.85,36.951L256,0L52.046,67.985L138.364,96.757L138.364,223.178ZM438.712,179.114L438.712,201.64L413.683,201.64L413.683,179.114C413.683,172.213 419.296,166.599 426.197,166.599C433.098,166.599 438.712,172.213 438.712,179.114ZM153.381,101.763L256,135.97L358.619,101.763L358.619,160.592L340.098,160.592L340.098,175.61L358.619,175.61L358.619,190.627L326.081,190.627L326.081,205.645L358.619,205.645L358.619,214.697C348.942,219.41 317.807,231.675 256,231.675C194.146,231.675 163.01,219.391 153.381,214.701L153.381,101.763Z" style="fill:rgb(39,84,160);fill-rule:nonzero;"/>
        <rect x="87.805" y="436.913" width="15.017" height="15.017" style="fill:rgb(39,84,160);fill-rule:nonzero;"/>
        <rect x="296.046" y="190.627" width="15.017" height="15.017" style="fill:rgb(39,84,160);fill-rule:nonzero;"/>
    </g>
</svg>
