<svg xmlns="http://www.w3.org/2000/svg" viewBox="0 0 60 60"><defs><style>.cls-1{fill:#010d27;}</style></defs><g id="Livello_2" data-name="Livello 2"><g id="Livello_1-2" data-name="Livello 1"><path class="cls-1" d="M1,60H17a.94.94,0,0,0,1-1V53a.94.94,0,0,0-1-1H1a.94.94,0,0,0-1,1v6A.94.94,0,0,0,1,60Zm1-6H16v4H2Z"/><path class="cls-1" d="M1,33H2v3.8A2.22,2.22,0,0,0,4.2,39a2.4,2.4,0,0,0,2-1.2l.4-.8H13a5,5,0,0,0,5-5V30h8v7a.94.94,0,0,0,1,1h4.8A2.22,2.22,0,0,0,34,35.8a2.4,2.4,0,0,0-1.2-2h0l-.8-.4V29a5,5,0,0,0-5-5H24V16h3a5,5,0,0,0,5-5V3a.94.94,0,0,0-1-1H27a.94.94,0,0,0-1,1v7H22a4.72,4.72,0,0,0,1-3V5A5,5,0,0,0,13,5V7a5.39,5.39,0,0,0,1,3H9a5,5,0,0,0-5,5v7H1a.94.94,0,0,0-1,1v9A.94.94,0,0,0,1,33Zm26-7a3,3,0,0,1,3,3v5a1,1,0,0,0,.6.9l1.3.7c.1.1.2.2.1.3s-.1.1-.2.1H28V29a.94.94,0,0,0-1-1H17a.94.94,0,0,0-1,1v3a3,3,0,0,1-3,3H6a1,1,0,0,0-.9.6l-.7,1.3c0,.1-.2.1-.3,0a.1.1,0,0,1-.1-.1V33h9a.94.94,0,0,0,1-1V26ZM12,22H10V16h2ZM28,4h2V6H28ZM15,5a3,3,0,0,1,6,0V7a3,3,0,0,1-6,0ZM6,15a3,3,0,0,1,3-3h8V22h2V12h8a.94.94,0,0,0,1-1V8h2v3a3,3,0,0,1-3,3H23a.94.94,0,0,0-1,1v9H14V15a.94.94,0,0,0-1-1H9a.94.94,0,0,0-1,1v3H6Zm0,5H8v2H6ZM2,24H12v2.2L7,27l-5-.8Zm0,4.2,4.8.8h.3l4.8-.8V31H2Z"/><path class="cls-1" d="M59.4,5.9a.88.88,0,0,0,.4-1.3c-.1-.2-.3-.4-.4-.4l-8-4a1.05,1.05,0,0,0-1.3.4c-.1.1-.1.2-.1.4V28H43a.94.94,0,0,0-1,1V59a.94.94,0,0,0,1,1H59a.94.94,0,0,0,1-1V29a.94.94,0,0,0-1-1H52V9.6ZM52,2.6,56.8,5,52,7.4ZM58,58H44V54H58Zm0-6H44V48H58Zm0-6H44V42H58Zm0-6H44V36H58Zm0-10v4H44V30Z"/><path class="cls-1" d="M22,40a.94.94,0,0,0-1,1V59a.94.94,0,0,0,1,1H38a.94.94,0,0,0,1-1V41a.94.94,0,0,0-1-1ZM37,58H23V54H37Zm0-6H23V48H37Zm0-6H23V42H37Z"/></g></g></svg>