<svg xmlns="http://www.w3.org/2000/svg" viewBox="0 0 60 60"><defs><style>.cls-1{fill:#010d27;}</style></defs><g id="Livello_2" data-name="Livello 2"><g id="Livello_1-2" data-name="Livello 1"><path class="cls-1" d="M59,0H21a.94.94,0,0,0-1,1V5a.94.94,0,0,0,1,1h2V17.6A5.91,5.91,0,0,0,17.5,14H16a4.72,4.72,0,0,0,1-3V7a5,5,0,0,0-5-5H8A.94.94,0,0,0,7,3v8a5.39,5.39,0,0,0,1,3H7a7,7,0,0,0-7,7V40H5V55.7L3.2,58.4a1,1,0,0,0,.3,1.4A.76.76,0,0,0,4,60H20a.94.94,0,0,0,1-1,1.42,1.42,0,0,0-.2-.6L19,55.7v-29l1.3,2.9A4.14,4.14,0,0,0,23,31.9V36H21v2H39V53.4l-7.5,4.7a1,1,0,0,0,1.1,1.7l7.5-4.7,7.5,4.7a1,1,0,1,0,1.1-1.7L41,53.4V38H59V36H57V6h2a.94.94,0,0,0,1-1V1A.94.94,0,0,0,59,0ZM9,4h3a2.91,2.91,0,0,1,2.8,2H9ZM9,8h6v3a3,3,0,0,1-6,0ZM5,38H2V36H5Zm8,20V38H11V58H5.9l1-1.4c0-.2.1-.4.1-.6V36H17V56a1.42,1.42,0,0,0,.2.6l1,1.4ZM23.9,30a2,2,0,0,1-1.8-1.2l-3.2-7.2a1,1,0,0,0-1.3-.5.87.87,0,0,0-.6.9V34H7V22H5V34H2V21a5,5,0,0,1,5-5h4V30h2V16h4.5a4.15,4.15,0,0,1,3.8,2.6l2.8,7.7a1,1,0,0,0,.9.7h3v3ZM55,36H25V32H35V26.4L45.7,15.7l-1.4-1.4L33.6,25H25.7L25,23h0V6H55ZM30,30V27h3v3ZM58,4H22V2H58Z"/></g></g></svg>