<svg xmlns="http://www.w3.org/2000/svg" viewBox="0 0 60 59.85"><defs><style>.cls-1{fill:#ffd600;}</style></defs><g id="Livello_2" data-name="Livello 2"><g id="Livello_1-2" data-name="Livello 1"><path class="cls-1" d="M48.6,39.05A24,24,0,1,0,11.4,8.85a23.72,23.72,0,0,0-4.8,20.2l2-.4a22,22,0,1,1,27.2,16.4l.5,1.9a24.15,24.15,0,0,0,6.6-2.9l11.4,11.4a1,1,0,0,0,1.4,0l4-4a1,1,0,0,0,0-1.4ZM55,53.45,44.5,43a21,21,0,0,0,2.7-2.4l10.4,10.3Z"/><path class="cls-1" d="M35.7,39.85l.7,1.9A19,19,0,0,0,48,17.55a19.06,19.06,0,0,0-36.3,11.6l1.9-.6a11.63,11.63,0,0,1-.4-1.8,27.18,27.18,0,0,0,4.2,3.4l1-1.7A22.48,22.48,0,0,1,13.2,24a22.68,22.68,0,0,1,11.1-7.1,8.94,8.94,0,0,0-1.5,12.6c.1.1.2.3.3.4l1.5-1.3a7,7,0,1,1,9.9.6,4.44,4.44,0,0,1-1.1.8,1.11,1.11,0,0,0-.4,1.4.1.1,0,0,0,.1.1l1,1.3a1.16,1.16,0,0,0,1,.4,23.7,23.7,0,0,0,11.5-6.3A16.5,16.5,0,0,1,35.7,39.85Zm-.1-9A8.93,8.93,0,0,0,37,18.25a10.61,10.61,0,0,0-1.5-1.5,21,21,0,0,1,11.1,7.1A20.55,20.55,0,0,1,35.6,30.85ZM30,14.05A23.2,23.2,0,0,0,13.3,21,17,17,0,0,1,32.9,7.15,16.78,16.78,0,0,1,46.7,21,23.61,23.61,0,0,0,30,14.05Z"/><path class="cls-1" d="M34,23.85a4,4,0,1,0-4,4A4,4,0,0,0,34,23.85Zm-6,0a2,2,0,1,1,2,2A2,2,0,0,1,28,23.85Z"/><path class="cls-1" d="M33,37.85H32v-6a.94.94,0,0,0-1-1H3a.94.94,0,0,0-1,1v3H1a.94.94,0,0,0-1,1v23a.94.94,0,0,0,1,1H33a.94.94,0,0,0,1-1v-20A.94.94,0,0,0,33,37.85Zm-29-5H30v5H27v-3H25v3H23v-3H21v3H19v-3H17v3H15v-3H13v3H11.5l-1.7-2.6a1.23,1.23,0,0,0-.8-.4H4Zm28,25H2v-21H8.5l1.7,2.6a.91.91,0,0,0,.8.4H32Z"/><rect class="cls-1" x="4" y="38.85" width="3" height="2"/></g></g></svg>