<svg xmlns="http://www.w3.org/2000/svg" viewBox="0 0 60.07 59.95"><defs><style>.cls-1{fill:#2754a0;}</style></defs><g id="Livello_2" data-name="Livello 2"><g id="Livello_1-2" data-name="Livello 1"><path class="cls-1" d="M4,56h8V54H4a2,2,0,0,1-2-2V10A2,2,0,0,1,4,8H9.1a6.94,6.94,0,0,0-.5,1.3l-.1.7H5a.94.94,0,0,0-1,1V51a.94.94,0,0,0,1,1h7V50H6V12H8.2l-.1.8A1.1,1.1,0,0,0,8.9,14H31.1a.94.94,0,0,0,1-1v-.2L32,12h2.2v9h2V11a.94.94,0,0,0-1-1H31.5l-.1-.7A3,3,0,0,0,30.9,8H36a2,2,0,0,1,2,2V21h2V10a4,4,0,0,0-4-4H25V5A5,5,0,0,0,15,5V6H4a4,4,0,0,0-4,4V52A4,4,0,0,0,4,56ZM10.6,9.7a2,2,0,0,1,2-1.7h3.5a.94.94,0,0,0,1-1V5a3,3,0,0,1,6,0V7a.94.94,0,0,0,1,1h3.5a2,2,0,0,1,2,1.7L30,12H10.4Z"/><rect class="cls-1" x="19" y="4" width="2" height="2"/><path class="cls-1" d="M14.3,17.3l-2,2A2.77,2.77,0,0,0,11,19a3,3,0,1,0,3,3,3.08,3.08,0,0,0-.3-1.3l2-2ZM11,23a.94.94,0,0,1-1-1,.91.91,0,0,1,.3-.7l1.4,1.4A.91.91,0,0,1,11,23Z"/><rect class="cls-1" x="16" y="19" width="4" height="2"/><rect class="cls-1" x="22" y="19" width="7" height="2"/><rect class="cls-1" x="16" y="23" width="14" height="2"/><path class="cls-1" d="M11,29a3,3,0,1,0,3,3A2.95,2.95,0,0,0,11,29Zm0,4a1,1,0,0,1,0-2,1,1,0,0,1,0,2Z"/><rect class="cls-1" x="16" y="29" width="2" height="2"/><rect class="cls-1" x="20" y="29" width="2" height="2"/><rect class="cls-1" x="16" y="33" width="3" height="2"/><path class="cls-1" d="M11,39a3,3,0,1,0,3,3A2.95,2.95,0,0,0,11,39Zm0,4a1,1,0,0,1,0-2,1,1,0,0,1,0,2Z"/><rect class="cls-1" x="16" y="39" width="2" height="2"/><path class="cls-1" d="M56.3,50H56V45A18.94,18.94,0,0,0,41.8,26.6a4.94,4.94,0,0,0-9.5,0A18.88,18.88,0,0,0,18.2,43H16.1v2h2v5h-.3a3.76,3.76,0,0,0-3.7,3.7,3.65,3.65,0,0,0,3.1,3.6L31,59.5a41.57,41.57,0,0,0,12.2,0L57,57.3h0A3.67,3.67,0,0,0,60,53,3.85,3.85,0,0,0,56.3,50ZM34,28a3,3,0,0,1,6,0V44H34ZM20,45a16.86,16.86,0,0,1,8-14.4V44h2V29.5c.7-.3,1.3-.5,2-.8V44.9a.94.94,0,0,0,1,1h8a.94.94,0,0,0,1-1V28.8a16.67,16.67,0,0,1,2,.8V44.1h2V30.6A17,17,0,0,1,54,45v5H20ZM56.6,55.4h0L42.8,57.6a37.6,37.6,0,0,1-11.6,0L17.5,55.4a1.86,1.86,0,0,1-1.4-2A1.62,1.62,0,0,1,17.7,52H56.3A1.75,1.75,0,0,1,58,53.7a1.65,1.65,0,0,1-1.4,1.7Z"/></g></g></svg>