<svg xmlns="http://www.w3.org/2000/svg" viewBox="0 0 203.21 210.2"><defs><style>.cls-1{fill:#2754a0;}</style></defs><g id="Livello_2" data-name="Livello 2"><g id="Livello_1-2" data-name="Livello 1"><rect class="cls-1" x="140.2" y="140.1" width="7" height="7"/><rect class="cls-1" x="161.2" y="147.1" width="7" height="7"/><path class="cls-1" d="M157.7,98.2V49a14,14,0,0,0-21-12.1V24.5a14,14,0,0,0-14-14,14.79,14.79,0,0,0-7.1,1.9A14,14,0,0,0,87.7,14v8.9A13.94,13.94,0,0,0,68.6,28a14.41,14.41,0,0,0-1.9,7V86.1l-6.3-6.3a15.91,15.91,0,0,0-22.5,22.5h0l36.2,36.2a10.37,10.37,0,0,1,3.1,7.4v64.3h7V146a17.56,17.56,0,0,0-5.1-12.4L42.9,97.4A8.91,8.91,0,1,1,55.5,84.8l19.3,19.3,4.9-4.9-6-6V35a7,7,0,0,1,14,0v66.5h7V14a7,7,0,0,1,14,0V94.5h7v-70a7,7,0,1,1,14,0v63h7V49a7,7,0,0,1,14,0V98.2a49,49,0,0,0-10.5,95.9v16.1h7V195.7a49,49,0,1,0,14-97A19.68,19.68,0,0,0,157.7,98.2Zm-35.5,76A42,42,0,0,1,181.4,115l-4.8,4.8-5.1,5.1a27,27,0,0,0-6.6-3.8l1.9-7-6.8-1.8-1.9,7a24.22,24.22,0,0,0-7.6,0l-1.9-7-6.8,1.8,1.9,7a27,27,0,0,0-6.6,3.8l-5.1-5.1-4.9,4.9,5.1,5.1a27,27,0,0,0-3.8,6.6l-7-1.9-1.8,6.8,7,1.9a24.22,24.22,0,0,0,0,7.6l-7,1.9,1.8,6.8,7-1.9a27,27,0,0,0,3.8,6.6l-5.3,5.3Zm32-41.1v7h2.1l-19.2,19.2A21,21,0,0,1,166.4,130l-5.2,5.2v-2.1Zm-7,25.9v2.1h7v-7h-2.1l19.2-19.2a21,21,0,0,1-29.2,29.3Zm7,30.1a41.88,41.88,0,0,1-27.1-9.9l4.6-4.6,5.3-5.3a27,27,0,0,0,6.6,3.8l-1.9,7,6.8,1.8,1.9-7a24.22,24.22,0,0,0,7.6,0l1.9,7,6.8-1.8-1.9-7a27,27,0,0,0,6.6-3.8l5.1,5.1,4.9-4.9-5.1-5.1a27,27,0,0,0,3.8-6.6l7,1.9,1.8-6.8-7-1.9a24.22,24.22,0,0,0,0-7.6l7-1.9-1.8-6.8-7,1.9a27,27,0,0,0-3.8-6.6l9.9-9.9a41.83,41.83,0,0,1-32,69Z"/><path class="cls-1" d="M25.6,60.4v2.7H31V60.4A18.76,18.76,0,0,1,49.8,41.7h2.7V36.4H49.8A18.76,18.76,0,0,1,31,17.7V15H25.6v2.7A18.76,18.76,0,0,1,6.8,36.4H4.1v5.3H6.8A18.76,18.76,0,0,1,25.6,60.4Zm2.7-31.7A24.06,24.06,0,0,0,38.7,39,24.06,24.06,0,0,0,28.3,49.3,24.06,24.06,0,0,0,17.9,39,23,23,0,0,0,28.3,28.7Z"/><path class="cls-1" d="M31,138.1v-2.7H25.6v2.7A21.36,21.36,0,0,1,4.1,159.4H1.4v5.3H4.1A21.43,21.43,0,0,1,25.6,186v2.7H31V186a21.36,21.36,0,0,1,21.5-21.3h2.7v-5.3H52.5A21.3,21.3,0,0,1,31,138.1Zm-2.7,36.4a27.78,27.78,0,0,0-12.5-12.4,27.3,27.3,0,0,0,12.5-12.4,27.3,27.3,0,0,0,12.5,12.4A27.78,27.78,0,0,0,28.3,174.5Z"/><path class="cls-1" d="M197.5,36.4a13.38,13.38,0,0,1-13.4-13.3V20.4h-5.4V23a13.32,13.32,0,0,1-13.4,13.3h-2.7v5.3h2.7a13.38,13.38,0,0,1,13.4,13.3v2.7h5.4V54.9a13.32,13.32,0,0,1,13.4-13.3h2.7V36.3h-2.7Zm-16.2,9.1a19,19,0,0,0-6.5-6.4,19.88,19.88,0,0,0,6.5-6.4,19,19,0,0,0,6.5,6.4A17.35,17.35,0,0,0,181.3,45.5Z"/><rect class="cls-1" x="8.1" y="95.3" width="5.4" height="8"/><rect class="cls-1" y="103.3" width="8.1" height="5.3"/><rect class="cls-1" x="13.5" y="103.3" width="8.1" height="5.3"/><rect class="cls-1" x="8.1" y="108.6" width="5.4" height="8"/><rect class="cls-1" x="185.6" y="68.3" width="5.4" height="8"/><rect class="cls-1" x="177.5" y="76.3" width="8.1" height="5.3"/><rect class="cls-1" x="190.9" y="76.3" width="8.1" height="5.3"/><rect class="cls-1" x="185.6" y="81.6" width="5.4" height="8"/></g></g></svg>