<svg xmlns="http://www.w3.org/2000/svg" viewBox="0 0 59.97 59.95"><defs><style>.cls-1{fill:#010d27;}</style></defs><g id="Livello_2" data-name="Livello 2"><g id="Livello_1-2" data-name="Livello 1"><path class="cls-1" d="M4,56h8V54H4a2,2,0,0,1-2-2V10A2,2,0,0,1,4,8H9.1a6.94,6.94,0,0,0-.5,1.3l-.1.7H5a.94.94,0,0,0-1,1V51a.94.94,0,0,0,1,1h7V50H6V12H8.2l-.2.8A1.1,1.1,0,0,0,8.8,14H31a.94.94,0,0,0,1-1v-.2l-.1-.8h2.2v9h2V11a.94.94,0,0,0-1-1H31.6l-.1-.7A3,3,0,0,0,31,8h5.1a2,2,0,0,1,2,2V21h2V10a4,4,0,0,0-4-4h-11V5a5,5,0,1,0-10,0V6H4a4,4,0,0,0-4,4V52A4,4,0,0,0,4,56ZM10.6,9.7a2,2,0,0,1,2-1.7H16a.94.94,0,0,0,1-1V5a3,3,0,0,1,6,0V7a.94.94,0,0,0,1,1h3.5a2,2,0,0,1,2,1.7l.4,2.3H10.2Z"/><rect class="cls-1" x="19" y="4" width="2" height="2"/><path class="cls-1" d="M14.3,17.3l-2,2A3.08,3.08,0,0,0,11,19a3,3,0,1,0,3,3,3.08,3.08,0,0,0-.3-1.3l2-2ZM11,23a.94.94,0,0,1-1-1,.91.91,0,0,1,.3-.7l1.4,1.4A.91.91,0,0,1,11,23Z"/><rect class="cls-1" x="16" y="19" width="4" height="2"/><rect class="cls-1" x="22" y="19" width="7" height="2"/><rect class="cls-1" x="16" y="23" width="14" height="2"/><path class="cls-1" d="M11,29a3,3,0,1,0,3,3A2.95,2.95,0,0,0,11,29Zm0,4a1,1,0,0,1,0-2,1,1,0,0,1,0,2Z"/><rect class="cls-1" x="16" y="29" width="2" height="2"/><rect class="cls-1" x="20" y="29" width="2" height="2"/><rect class="cls-1" x="16" y="33" width="3" height="2"/><path class="cls-1" d="M11,39a3,3,0,1,0,3,3A2.95,2.95,0,0,0,11,39Zm0,4a1,1,0,0,1,0-2,1,1,0,0,1,0,2Z"/><rect class="cls-1" x="16" y="39" width="2" height="2"/><path class="cls-1" d="M56.3,50H56V45A18.94,18.94,0,0,0,41.8,26.6a4.94,4.94,0,0,0-9.5,0A18.88,18.88,0,0,0,18.2,43H16v2h2v5h-.3A3.76,3.76,0,0,0,14,53.7a3.65,3.65,0,0,0,3.1,3.6l13.8,2.2a41.57,41.57,0,0,0,12.2,0l13.8-2.2h0a3.68,3.68,0,0,0-.6-7.3ZM34,28a3,3,0,0,1,6,0V44H34ZM20,45a16.86,16.86,0,0,1,8-14.4V44h2V29.5c.7-.3,1.3-.5,2-.8V45a.94.94,0,0,0,1,1h8a.94.94,0,0,0,1-1V28.8a16.67,16.67,0,0,1,2,.8V44h2V30.6A17,17,0,0,1,54,45v5H20ZM56.6,55.4h0L42.8,57.6a37.6,37.6,0,0,1-11.6,0L17.4,55.4a1.86,1.86,0,0,1-1.4-2A1.62,1.62,0,0,1,17.6,52H56.2a1.75,1.75,0,0,1,1.7,1.7,1.71,1.71,0,0,1-1.3,1.7Z"/></g></g></svg>