<svg xmlns="http://www.w3.org/2000/svg" viewBox="0 0 59.9 59.98"><defs><style>.cls-1{fill:#ffd600;}</style></defs><g id="Livello_2" data-name="Livello 2"><g id="Livello_1-2" data-name="Livello 1"><path class="cls-1" d="M32.8,52.68a19.07,19.07,0,0,0,21.9-15.6,18.8,18.8,0,0,0-15.6-21.8A16.28,16.28,0,0,0,36,15a19.18,19.18,0,0,0-15.8,8.4l1.7,1.1a17,17,0,0,1,28.3,18.9,16.84,16.84,0,0,1-16.9,7.3Z"/><path class="cls-1" d="M33,34a3,3,0,0,0,6,0v-.4l10.6-6.7-1.1-1.7L38,31.78a2.9,2.9,0,0,0-4.2.2A2.79,2.79,0,0,0,33,34Zm3-1a1,1,0,1,1-1,1A.94.94,0,0,1,36,33Z"/><path class="cls-1" d="M58.7,15.68a1,1,0,0,0,0-1.4l-3-3a1,1,0,0,0-1.4,0L50.6,15a23.06,23.06,0,0,0-10.5-4.6,6.1,6.1,0,0,0,.3-8.5,6.1,6.1,0,0,0-8.5-.3,6.1,6.1,0,0,0-.3,8.5l.3.3A25.41,25.41,0,0,0,21.4,15l-3.7-3.7a1,1,0,0,0-1.4,0l-3,3a1,1,0,0,0,0,1.4l3.7,3.7a22.64,22.64,0,0,0-2.6,4.2l1.8.9a23,23,0,0,1,3.2-4.9L20,19l.7-.7.1-.1a22,22,0,0,1,29.5-.8l.9.9c.2.2.4.3.5.5l.9.9a22,22,0,0,1-2.3,31A22.25,22.25,0,0,1,35.9,56a26.07,26.07,0,0,1-4.8-.5l-.4,2a23.88,23.88,0,0,0,28.6-18.3,22.42,22.42,0,0,0,.6-5.2,23.47,23.47,0,0,0-5-14.6Zm-39.3,1-.5.5a4.62,4.62,0,0,0-.7.7L15.4,15l1.6-1.6,2.8,2.8A1.76,1.76,0,0,1,19.4,16.68ZM37,9.88V7h1V5H34V7h1v2.9A4.11,4.11,0,0,1,32.1,5,4,4,0,0,1,37,2.08,4.11,4.11,0,0,1,39.9,7,4.23,4.23,0,0,1,37,9.88Zm16.4,7.6-1-1-.3-.3,2.8-2.8L56.5,15l-2.8,2.8Z"/><rect class="cls-1" x="35" y="18.98" width="2" height="4"/><rect class="cls-1" x="35" y="44.98" width="2" height="4"/><rect class="cls-1" x="28.51" y="20.67" width="2" height="4" transform="translate(-7.38 17.79) rotate(-29.99)"/><rect class="cls-1" x="41.5" y="43.28" width="2" height="4" transform="translate(-16.94 27.31) rotate(-29.99)"/><rect class="cls-1" x="46.33" y="38.48" width="2" height="4" transform="translate(-11.39 61.23) rotate(-60)"/><rect class="cls-1" x="47" y="32.98" width="4" height="2"/><rect class="cls-1" x="40.49" y="21.64" width="4" height="2" transform="translate(1.64 48.12) rotate(-60)"/><path class="cls-1" d="M31.4,52.18a.91.91,0,0,0-.3-.7l-1.8-1.8a12,12,0,0,0,1.1-2.6H33a.94.94,0,0,0,1-1v-6a.94.94,0,0,0-1-1H30.4a12,12,0,0,0-1.1-2.6l1.8-1.8a1,1,0,0,0,0-1.4l-4.2-4.2a1,1,0,0,0-1.4,0l-1.8,1.8a12,12,0,0,0-2.6-1.1V27a.94.94,0,0,0-1-1h-6a.94.94,0,0,0-1,1v2.6a12,12,0,0,0-2.6,1.1l-1.8-1.8a1,1,0,0,0-1.4,0l-4.2,4.2a1,1,0,0,0,0,1.4l1.8,1.8A10.91,10.91,0,0,0,3.8,39H1a.94.94,0,0,0-1,1v6a.94.94,0,0,0,1,1H3.6a12,12,0,0,0,1.1,2.6l-1.8,1.8a1,1,0,0,0,0,1.4L7.1,57a1,1,0,0,0,1.4,0l1.8-1.8a12,12,0,0,0,2.6,1.1V59a.94.94,0,0,0,1,1h6a.94.94,0,0,0,1-1v-2.6a12,12,0,0,0,2.6-1.1l1.8,1.8a1,1,0,0,0,1.4,0l4.2-4.2C31.3,52.68,31.4,52.48,31.4,52.18ZM26.2,55l-1.7-1.7a.91.91,0,0,0-1.2-.1,12,12,0,0,1-3.5,1.5,1,1,0,0,0-.8,1V58H15v-2.4a1,1,0,0,0-.8-1,12,12,0,0,1-3.5-1.5,1,1,0,0,0-1.2.1L7.8,55,5,52.18l1.7-1.7a1,1,0,0,0,.1-1.2,12,12,0,0,1-1.5-3.5,1,1,0,0,0-1-.8H2V41H4.4a1,1,0,0,0,1-.8,12,12,0,0,1,1.5-3.5,1.28,1.28,0,0,0-.2-1.2L5,33.78,7.8,31l1.7,1.7a.91.91,0,0,0,1.2.1,12,12,0,0,1,3.5-1.5,1,1,0,0,0,.8-1V28h4v2.4a1,1,0,0,0,.8,1,12,12,0,0,1,3.5,1.5,1,1,0,0,0,1.2-.1l1.7-1.7,2.8,2.8-1.7,1.7a.91.91,0,0,0-.1,1.2,12,12,0,0,1,1.5,3.5,1,1,0,0,0,1,.8H32v4H29.6a1,1,0,0,0-1,.8,12,12,0,0,1-1.5,3.5,1,1,0,0,0,.1,1.2l1.7,1.7Z"/><path class="cls-1" d="M17,34a9,9,0,1,0,9,9A9,9,0,0,0,17,34Zm0,16a7,7,0,1,1,7-7h0A7,7,0,0,1,17,50Z"/><path class="cls-1" d="M17,39a4,4,0,1,0,4,4A4,4,0,0,0,17,39Zm0,6a2,2,0,1,1,2-2A2,2,0,0,1,17,45Z"/></g></g></svg>